<svg width="48" height="48" viewBox="0 0 48 48" fill="none" xmlns="http://www.w3.org/2000/svg">
<path d="M12 34V40H36V34" stroke="white" stroke-width="2"/>
<rect x="19" y="31" width="3" height="2" fill="white"/>
<rect x="21" y="33" width="2" height="2" fill="white"/>
<rect width="3" height="2" transform="matrix(-1 0 0 1 29 31)" fill="white"/>
<rect width="2" height="2" transform="matrix(-1 0 0 1 27 33)" fill="white"/>
<rect x="17" y="29" width="3" height="2" fill="white"/>
<rect width="3" height="2" transform="matrix(-1 0 0 1 31 29)" fill="white"/>
<rect x="15" y="27" width="3" height="2" fill="white"/>
<rect width="3" height="2" transform="matrix(-1 0 0 1 33 27)" fill="white"/>
<rect x="13" y="25" width="3" height="2" fill="white"/>
<rect width="3" height="2" transform="matrix(-1 0 0 1 35 25)" fill="white"/>
<rect x="12" y="23" width="2" height="2" fill="white"/>
<rect width="2" height="2" transform="matrix(-1 0 0 1 36 23)" fill="white"/>
<path d="M25 8V36H23V8H25Z" fill="white"/>
</svg>
